<?xml version="1.0" standalone="no"?>
<!DOCTYPE svg PUBLIC "-//W3C//DTD SVG 20010904//EN"
 "http://www.w3.org/TR/2001/REC-SVG-20010904/DTD/svg10.dtd">
<svg version="1.0" xmlns="http://www.w3.org/2000/svg"
 width="1084.000000pt" height="1084.000000pt" viewBox="0 0 1084.000000 1084.000000"
 preserveAspectRatio="xMidYMid meet">
<metadata>
Created by potrace 1.11, written by Peter Selinger 2001-2013
</metadata>
<g transform="translate(0.000000,1084.000000) scale(0.100000,-0.100000)"
fill="#000000" stroke="none">
<path d="M5119 10836 c-2 -2 -49 -7 -104 -10 -185 -13 -273 -23 -505 -60 -585
-93 -1235 -326 -1771 -632 -495 -283 -966 -660 -1326 -1061 -38 -42 -73 -81
-79 -87 -42 -45 -191 -230 -261 -324 -386 -519 -664 -1074 -852 -1697 -29 -97
-99 -375 -107 -425 -2 -14 -9 -45 -14 -70 -18 -83 -54 -320 -65 -425 -4 -33
-8 -71 -10 -84 -27 -167 -27 -906 0 -1071 2 -14 7 -59 11 -100 3 -41 7 -77 9
-80 2 -3 6 -32 9 -65 4 -33 9 -67 11 -75 2 -8 6 -33 10 -55 3 -22 7 -47 10
-55 2 -8 6 -32 9 -52 5 -29 43 -206 71 -320 54 -230 171 -570 281 -823 51
-117 194 -406 243 -491 195 -341 385 -611 637 -904 103 -119 345 -367 449
-458 33 -30 74 -66 90 -81 17 -15 89 -75 160 -132 382 -307 785 -551 1230
-744 61 -26 124 -53 140 -61 68 -31 312 -116 445 -156 177 -53 417 -112 535
-133 17 -3 80 -14 140 -24 61 -11 133 -22 160 -25 28 -4 66 -9 85 -11 35 -4
112 -13 185 -20 229 -23 802 -23 935 0 14 2 59 6 100 10 41 3 84 7 95 9 18 3
67 10 155 22 63 9 154 24 200 34 50 11 90 19 135 26 84 14 402 103 570 159
440 147 865 353 1260 612 122 80 322 224 391 282 17 14 50 42 74 60 23 19 48
40 54 45 6 6 45 40 86 75 77 66 408 394 470 467 176 204 307 374 440 571 60
90 123 186 140 215 17 29 35 60 41 68 115 180 317 611 424 906 41 112 142 440
150 487 3 17 8 33 10 37 2 3 6 17 9 31 2 13 12 58 21 99 21 98 52 254 60 305
18 118 32 230 40 315 4 36 8 81 11 100 22 191 22 760 -1 925 -2 17 -6 59 -9
95 -8 95 -13 132 -42 325 -24 159 -106 506 -168 710 -1 6 -11 37 -21 70 -19
66 -107 309 -129 359 -13 28 -27 68 -27 73 0 1 -16 34 -35 73 -19 39 -34 73
-34 77 0 12 -178 360 -234 455 -54 94 -224 364 -245 390 -6 7 -52 69 -102 138
-51 69 -95 127 -98 130 -3 3 -24 28 -46 55 -305 386 -739 783 -1175 1077 -293
197 -624 378 -910 497 -58 24 -118 49 -135 56 -256 109 -755 248 -1080 300
-55 9 -110 18 -121 20 -12 2 -48 7 -80 10 -33 4 -66 9 -75 10 -8 2 -55 6 -105
10 -49 4 -98 10 -109 12 -23 6 -710 14 -716 9z m369 -2057 c2 -14 -184 -317
-374 -606 -140 -214 -419 -655 -526 -833 -119 -197 -321 -539 -331 -561 -4 -8
-16 -28 -26 -45 -20 -32 -195 -336 -239 -414 -14 -25 -78 -137 -142 -250 -64
-113 -133 -236 -154 -273 -60 -110 -78 -141 -86 -152 -4 -5 -19 -30 -32 -55
-121 -219 -446 -781 -512 -885 -99 -158 -240 -360 -417 -600 -62 -84 -222
-180 -317 -192 -106 -12 -213 55 -247 156 -21 64 -25 86 -27 151 -3 126 27
268 91 434 l31 79 -218 -218 c-231 -231 -302 -293 -378 -325 -192 -83 -393 67
-377 280 3 47 35 154 61 205 8 16 34 86 58 156 46 133 116 303 165 401 16 32
27 58 23 58 -3 0 -24 -13 -47 -29 -101 -69 -235 -121 -312 -121 -65 0 -140 42
-165 94 -11 24 -18 54 -16 67 3 13 5 28 5 32 2 14 54 57 70 57 9 0 29 -11 45
-25 16 -14 39 -25 51 -25 22 0 207 131 310 219 79 68 260 246 385 381 442 473
514 541 623 590 53 25 134 26 167 3 60 -42 63 -47 61 -130 -1 -67 -5 -83 -29
-118 -15 -22 -29 -42 -32 -45 -3 -3 -25 -30 -50 -60 -25 -30 -47 -57 -51 -60
-11 -9 -115 -135 -144 -175 -17 -22 -38 -49 -48 -60 -17 -18 -279 -408 -313
-465 -137 -230 -286 -543 -309 -652 -2 -9 67 54 153 139 299 296 542 496 712
584 59 31 162 33 203 4 41 -30 65 -87 61 -140 -6 -56 -55 -197 -100 -287 -63
-125 -184 -418 -228 -552 -54 -163 -102 -381 -86 -391 14 -9 152 137 234 249
80 108 227 327 281 418 5 10 42 71 80 135 39 65 75 127 81 138 6 11 69 119
139 240 70 121 141 245 157 275 17 30 48 84 68 120 41 70 59 103 110 195 18
33 36 65 40 70 4 6 21 35 37 65 17 30 39 71 50 90 11 19 29 51 40 70 11 19 78
136 149 260 185 326 430 745 594 1015 263 435 540 835 766 1106 188 224 223
256 232 208z m1886 -879 c44 -16 103 -78 126 -132 31 -71 36 -142 16 -214 -18
-62 -56 -147 -68 -152 -5 -2 -8 -8 -8 -14 0 -5 -34 -66 -76 -135 -42 -70 -80
-136 -85 -147 -6 -12 -30 -57 -55 -101 -103 -184 -236 -469 -374 -800 -20 -50
-92 -241 -94 -250 -1 -5 -4 -14 -7 -20 -7 -11 -102 -293 -105 -311 -1 -5 -18
-62 -37 -125 -39 -124 -106 -387 -131 -514 -9 -44 -19 -91 -22 -105 -2 -14 -9
-50 -14 -80 -6 -30 -12 -66 -15 -80 -3 -14 -7 -45 -11 -70 -3 -25 -9 -70 -14
-100 -5 -30 -12 -89 -16 -130 -3 -41 -8 -88 -9 -105 -2 -16 -4 -68 -6 -115 -2
-107 -18 -159 -64 -215 -40 -50 -67 -56 -89 -22 -56 86 -78 594 -36 837 5 30
12 71 15 90 3 19 8 42 10 50 2 8 7 31 11 50 3 19 7 40 8 45 2 6 6 28 11 50 4
22 23 105 42 185 43 182 38 163 61 243 11 37 18 67 16 67 -1 0 -33 -39 -70
-87 -158 -205 -347 -417 -577 -650 l-120 -122 145 5 c259 8 353 -32 341 -143
-5 -49 -42 -97 -132 -171 -229 -187 -475 -321 -946 -514 -195 -80 -264 -93
-305 -60 -23 19 -24 22 -10 47 18 34 176 232 239 300 25 27 105 110 178 185
72 74 131 135 130 136 -1 1 -78 4 -172 7 -171 6 -203 9 -249 27 -37 14 -103
77 -110 105 -4 14 -10 25 -14 25 -5 0 -40 -33 -79 -72 -155 -159 -282 -274
-377 -343 -15 -11 -47 -34 -70 -51 -230 -172 -511 -309 -661 -321 -105 -9
-188 31 -215 102 -6 17 -11 30 -10 30 1 0 -4 14 -10 30 -12 30 -14 146 -5 220
16 121 78 301 165 480 74 150 89 177 173 301 237 352 559 634 832 730 75 26
218 24 270 -3 144 -76 158 -226 36 -398 -124 -175 -397 -466 -559 -596 -99
-80 -219 -151 -308 -185 -76 -28 -100 -25 -123 20 -13 24 -12 30 24 83 22 32
137 155 255 273 244 243 396 410 373 410 -19 0 -244 -119 -323 -171 -157 -103
-266 -200 -397 -354 -219 -259 -311 -499 -244 -637 50 -104 145 -93 420 49
157 81 208 112 351 216 221 162 392 330 715 702 194 223 336 359 495 472 112
79 140 93 194 93 100 0 140 -92 80 -184 -35 -55 -82 -96 -184 -164 -121 -80
-175 -120 -315 -233 -128 -104 -267 -235 -302 -285 -42 -60 -58 -145 -34 -175
20 -25 34 -26 321 -15 296 11 248 -9 445 189 276 279 416 439 648 737 17 22
119 175 159 240 19 31 55 116 80 190 159 471 414 1037 656 1459 39 68 68 129
66 136 -3 7 -16 17 -29 23 -32 15 -67 85 -62 121 16 99 132 153 241 111z m583
-2140 c57 -28 68 -38 85 -78 27 -61 27 -145 -1 -207 -58 -131 -356 -473 -581
-664 -131 -113 -299 -211 -401 -235 -30 -7 -63 16 -73 50 -11 37 52 112 294
354 227 226 389 405 377 416 -8 8 -230 -102 -322 -159 -322 -201 -615 -540
-690 -800 -50 -174 14 -309 139 -294 57 7 204 73 330 147 17 10 49 28 70 40
63 35 245 159 321 219 143 114 182 149 416 381 480 474 464 460 544 465 84 6
165 -57 165 -128 0 -40 -24 -80 -94 -161 -190 -218 -283 -414 -287 -605 -2
-100 37 -144 104 -116 36 15 161 134 252 240 166 193 398 535 541 795 96 176
168 284 228 341 42 40 134 35 183 -10 38 -34 56 -68 78 -146 18 -62 55 -135
86 -169 29 -31 49 -81 49 -125 0 -76 -80 -131 -138 -94 -13 8 -26 13 -28 10
-2 -2 -7 -28 -9 -58 -6 -68 -32 -224 -52 -309 -8 -36 -17 -74 -19 -85 -11 -59
-99 -362 -148 -510 -221 -672 -401 -1086 -605 -1385 -73 -108 -200 -248 -296
-329 -85 -71 -235 -161 -269 -161 -30 0 -65 23 -80 53 -12 27 -13 36 -1 63 7
18 22 41 32 51 88 93 218 259 234 300 4 12 27 52 50 90 163 264 242 414 319
603 12 30 28 69 35 85 50 119 160 452 215 650 84 308 95 349 135 525 2 8 8 37
15 64 6 27 8 51 5 54 -3 3 -5 0 -5 -6 0 -6 -6 -17 -12 -24 -7 -7 -33 -40 -58
-73 -188 -254 -528 -588 -672 -661 -94 -48 -198 -27 -269 54 -42 47 -88 147
-97 208 -11 80 -5 264 11 339 9 38 15 71 13 72 -1 1 -85 -80 -186 -181 -354
-349 -574 -519 -859 -662 -278 -138 -428 -153 -506 -50 -42 56 -55 115 -51
230 4 92 7 121 21 181 2 11 4 22 4 25 0 3 4 17 10 33 6 15 13 38 15 50 16 83
150 365 240 507 201 317 490 608 736 742 114 62 206 86 314 82 64 -2 90 -8
143 -34z"/>
<path d="M5648 4534 c-3 -2 -99 -9 -250 -18 -20 -1 -59 -31 -140 -108 -186
-175 -400 -398 -358 -373 8 5 40 26 70 46 30 20 75 47 100 61 25 14 90 52 145
85 55 33 147 87 205 118 116 64 261 158 280 180 9 11 6 14 -19 13 -17 -1 -32
-2 -33 -4z"/>
</g>
</svg>
